<?xml version="1.0" encoding="UTF-8" standalone="no"?> <!--part of the category icon pack by sixsixfive released under CC0 (https://creativecommons.org/publicdomain/zero/1.0/) on openclipart--> <svg xmlns="http://www.w3.org/2000/svg" xmlns:xlink="http://www.w3.org/1999/xlink" viewBox="0 0 32 32"><defs id="0"><linearGradient id="7"><stop id="q" stop-color="#161716"></stop><stop id="r" offset="1" stop-color="#2e2f2d"></stop></linearGradient><linearGradient id="8"><stop id="s" stop-color="#fff"></stop><stop id="t" offset="1" stop-color="#fff" stop-opacity="0"></stop></linearGradient><linearGradient x1="31.02" y1="1051.78" x2="31.11" y2="1028.17" id="9" xlink:href="#8" gradientUnits="userSpaceOnUse" gradientTransform="translate(0,-1020.3622)"></linearGradient><linearGradient x1="31.02" y1="1021.04" x2="31.18" y2="1025.18" id="A" xlink:href="#8" gradientUnits="userSpaceOnUse" gradientTransform="translate(0,-1020.3622)"></linearGradient><radialGradient cx="13.531" cy="1049.88" r="16" id="B" xlink:href="#7" gradientUnits="userSpaceOnUse" gradientTransform="matrix(1.4329786,-1.4036705,1.3587115,1.387081,-1430.5122,-1405.3484)"></radialGradient><mask id="C"><rect width="32" height="32" rx="5" id="u" fill="#fffffd"></rect></mask><mask id="D"><rect width="32" height="32" rx="5" y="-1" id="v" fill="#fffffd"></rect></mask></defs><rect width="32" height="32" rx="5" id="1" fill="url(#B)"></rect><g transform="translate(0,1.000415)" mask="url(#D)" id="2" fill-opacity="0.784"><path d="m 2.6332388,-3.6705853 -0.4486107,1.7661094 0.9586102,0 0.4438884,-1.7661094 1.0577767,0 -0.4580551,1.7661094 0.911388,0 0,1.01527676 -1.1616655,0 -0.3494441,1.38360975 0.9680546,0 0,1.01527679 -1.2183321,0 -0.4438885,1.7613871 -1.0436101,0 0.4438885,-1.7613871 -0.9680546,0 -0.44388845,1.7613871 -1.04361009,0 0.44388846,-1.7613871 -0.97749904,0 0,-1.01527679 1.22777657,0 0.3494441,-1.38360975 -1.03416565,0 0,-1.01527676 1.2938876,0 0.4438885,-1.7661094 1.0483323,0 m 0.2597219,2.78138616 -0.9680546,0 -0.3494441,1.38360975 0.9680546,0 0.3494441,-1.38360975" id="E" fill-opacity="0.784"></path><path d="m 9.5255775,-3.6705853 -0.4486107,1.7661094 0.9586102,0 0.443888,-1.7661094 1.057777,0 -0.458055,1.7661094 0.911388,0 0,1.01527676 -1.161665,0 -0.349445,1.38360975 0.968055,0 0,1.01527679 -1.218332,0 -0.4438885,1.7613871 -1.0436101,0 0.4438885,-1.7613871 -0.9680547,0 -0.4438884,1.7613871 -1.0436101,0 0.4438885,-1.7613871 -0.9774991,0 0,-1.01527679 1.2277766,0 0.3494441,-1.38360975 -1.0341656,0 0,-1.01527676 1.2938876,0 0.4438884,-1.7661094 1.0483323,0 m 0.259722,2.78138616 -0.9680546,0 -0.3494441,1.38360975 0.9680546,0 0.3494441,-1.38360975" id="F" fill-opacity="0.784"></path><path d="m 16.417916,-3.6705853 -0.44861,1.7661094 0.95861,0 0.443888,-1.7661094 1.057777,0 -0.458055,1.7661094 0.911388,0 0,1.01527676 -1.161666,0 -0.349444,1.38360975 0.968055,0 0,1.01527679 -1.218332,0 -0.443889,1.7613871 -1.04361,0 0.443889,-1.7613871 -0.968055,0 -0.443888,1.7613871 -1.043611,0 0.443889,-1.7613871 -0.977499,0 0,-1.01527679 1.227776,0 0.349445,-1.38360975 -1.034166,0 0,-1.01527676 1.293888,0 0.443888,-1.7661094 1.048332,0 m 0.259722,2.78138616 -0.968054,0 -0.349444,1.38360975 0.968054,0 0.349444,-1.38360975" id="G" fill-opacity="0.784"></path><path d="m 23.310256,-3.6705853 -0.448611,1.7661094 0.95861,0 0.443889,-1.7661094 1.057777,0 -0.458055,1.7661094 0.911388,0 0,1.01527676 -1.161666,0 -0.349444,1.38360975 0.968055,0 0,1.01527679 -1.218333,0 -0.443888,1.7613871 -1.04361,0 0.443888,-1.7613871 -0.968054,0 -0.443889,1.7613871 -1.04361,0 0.443889,-1.7613871 -0.977499,0 0,-1.01527679 1.227776,0 0.349444,-1.38360975 -1.034165,0 0,-1.01527676 1.293887,0 0.443889,-1.7661094 1.048332,0 m 0.259722,2.78138616 -0.968055,0 -0.349444,1.38360975 0.968055,0 0.349444,-1.38360975" id="H" fill-opacity="0.784"></path><path d="m 1.3346289,7.8249916 0,4.5380514 0.3777774,0 c 0.5477743,1e-6 0.9381439,-0.171573 1.17111,-0.514722 C 3.1164752,11.502027 3.2329565,10.914899 3.2329604,10.086934 3.2329565,9.2652723 3.1164752,8.6828661 2.8835163,8.3397133 2.6505502,7.9965711 2.2601806,7.8249974 1.7124063,7.8249916 l -0.3777774,0 m -1.39305415,-1.2561099 1.49222075,0 c 1.1522178,7.1e-6 1.9817532,0.2754695 2.4886087,0.8263881 0.5068462,0.5477829 0.7602716,1.4450034 0.760277,2.6916642 -5.4e-6,1.249816 -0.2534308,2.151758 -0.760277,2.70583 -0.5068555,0.550926 -1.3363909,0.826389 -2.4886087,0.826389 l -1.49222075,0 0,-7.0502713" id="I" fill-opacity="0.784"></path><path d="m 7.6083572,10.148323 2.9797188,0 0,1.374165 -2.9797188,0 0,-1.374165" id="J" fill-opacity="0.784"></path><path d="m 14.500696,10.148323 2.979719,0 0,1.374165 -2.979719,0 0,-1.374165" id="K" fill-opacity="0.784"></path><path d="m 20.387203,11.106933 4.991384,0 0,1.119165 -4.991384,0 0,-1.119165 m 0,-2.1486092 4.991384,0 0,1.1097212 -4.991384,0 0,-1.1097212" id="L" fill-opacity="0.784"></path><path d="m 30.972315,13.279153 c -0.236115,0.157407 -0.487966,0.275463 -0.755555,0.354166 -0.264447,0.08185 -0.533613,0.122778 -0.807499,0.122778 -0.705186,0 -1.276574,-0.206204 -1.714165,-0.618611 -0.437592,-0.412406 -0.656388,-0.94759 -0.656388,-1.605554 0,-0.456478 0.110185,-0.872033 0.330555,-1.246665 C 27.592781,9.9106414 27.923336,9.5848087 28.360929,9.3077679 28.20352,9.0622172 28.087039,8.835551 28.011485,8.6277686 27.935928,8.4168481 27.898151,8.2169411 27.898152,8.028047 c -1e-6,-0.5099934 0.171572,-0.9019371 0.514721,-1.1758322 0.343146,-0.2738816 0.838979,-0.4108258 1.487499,-0.4108329 0.229811,7.1e-6 0.454903,0.017322 0.675277,0.051944 0.220366,0.034637 0.437588,0.085007 0.651666,0.1511109 l 0,1.2088877 C 31.02583,7.7399976 30.8212,7.6549977 30.613427,7.5983252 30.408794,7.5385165 30.204165,7.5086092 29.999538,7.508603 c -0.251854,6.2e-6 -0.442317,0.04408 -0.571388,0.1322221 -0.129076,0.088154 -0.193613,0.2172278 -0.193611,0.3872219 -2e-6,0.1133387 0.04722,0.2691717 0.141667,0.4674995 0.09759,0.1983381 0.253423,0.4580598 0.467499,0.7791659 l 1.478054,2.2666646 c 0.06611,-0.119627 0.116477,-0.256572 0.151111,-0.410833 0.03462,-0.154257 0.05194,-0.321108 0.05194,-0.500555 -5e-6,-0.09444 -0.0032,-0.185738 -0.0094,-0.273889 -0.0063,-0.09129 -0.01574,-0.176292 -0.02833,-0.255 l 1.109721,0 0,0.240834 c -6e-6,0.456483 -0.05352,0.856297 -0.160555,1.199443 -0.107043,0.340001 -0.275468,0.645371 -0.505278,0.91611 l 0.765,1.161666 -1.496943,0 -0.226667,-0.34 m -2.030553,-3.111941 c -0.20778,0.135373 -0.365187,0.297502 -0.472222,0.486388 -0.10389,0.185743 -0.155835,0.393521 -0.155833,0.623333 -2e-6,0.384075 0.122776,0.708334 0.368333,0.972776 0.248701,0.261298 0.552497,0.391946 0.911388,0.391945 0.08815,10e-7 0.177867,-0.0094 0.269166,-0.02833 0.09444,-0.02204 0.185737,-0.05194 0.273889,-0.08972 0.0063,-0.0031 0.01889,-0.0094 0.03778,-0.01889 0.09129,-0.04407 0.165275,-0.085 0.221945,-0.122777 l -1.454443,-2.21472" id="M" fill-opacity="0.784"></path><path d="m 0.71601843,20.496401 2.97971927,0 0,1.374165 -2.97971927,0 0,-1.374165" id="N" fill-opacity="0.784"></path><path d="m 7.6083572,20.496401 2.9797188,0 0,1.374165 -2.9797188,0 0,-1.374165" id="O" fill-opacity="0.784"></path><path d="m 17.674026,21.393622 c -4e-6,-0.355737 -0.08028,-0.634348 -0.240833,-0.835832 -0.16056,-0.201478 -0.380929,-0.302219 -0.66111,-0.302222 -0.280189,3e-6 -0.500559,0.100744 -0.661111,0.302222 -0.15741,0.201484 -0.236114,0.480095 -0.236111,0.835832 -3e-6,0.358891 0.0787,0.639075 0.236111,0.840555 0.160552,0.201483 0.380922,0.302223 0.661111,0.302222 0.280181,1e-6 0.50055,-0.100739 0.66111,-0.302222 0.160551,-0.20148 0.240829,-0.481664 0.240833,-0.840555 m 0.878333,1.936109 -0.925555,0 0,-0.387222 c -0.119634,0.166853 -0.2613,0.28963 -0.425,0.368333 -0.160559,0.07556 -0.35417,0.113334 -0.580832,0.113334 -0.516299,0 -0.933428,-0.18574 -1.251388,-0.557222 -0.314817,-0.37148 -0.472224,-0.86259 -0.472222,-1.473332 -2e-6,-0.607589 0.157405,-1.095551 0.472222,-1.463887 0.314812,-0.371477 0.731941,-0.557217 1.251388,-0.557222 0.223514,5e-6 0.420273,0.03936 0.590277,0.118055 0.169995,0.07556 0.308514,0.187319 0.415555,0.335278 l 0,-0.193611 c -5e-6,-0.428143 -0.11806,-0.758698 -0.354166,-0.991666 -0.232967,-0.232957 -0.56667,-0.349438 -1.00111,-0.349444 -0.654817,6e-6 -1.190001,0.288061 -1.605554,0.864166 -0.412409,0.576115 -0.618612,1.325372 -0.618611,2.247775 -1e-6,0.966483 0.239258,1.736203 0.717777,2.309165 0.478516,0.569814 1.116015,0.854721 1.912498,0.854721 0.251848,0 0.495829,-0.03778 0.731944,-0.113333 0.236106,-0.07241 0.462772,-0.182593 0.679999,-0.330555 l 0.434444,0.83111 c -0.255005,0.173147 -0.533615,0.302221 -0.835832,0.387222 -0.299078,0.08815 -0.620189,0.13222 -0.963333,0.132222 -1.101853,-2e-6 -1.980184,-0.36676 -2.634997,-1.100277 -0.654815,-0.733517 -0.982221,-1.723608 -0.982221,-2.970275 0,-1.218328 0.294351,-2.192678 0.883054,-2.923052 0.588702,-0.733512 1.367867,-1.10027 2.337498,-1.100277 0.686292,7e-6 1.227772,0.207784 1.624443,0.623333 0.399809,0.412412 0.599716,0.97593 0.599722,1.690554 l 0,3.636107" id="P" fill-opacity="0.784"></path><path d="m 21.393036,20.496401 2.979719,0 0,1.374165 -2.979719,0 0,-1.374165" id="Q" fill-opacity="0.784"></path><path d="m 29.187317,20.449179 c -2e-6,-0.166848 0.05666,-0.306941 0.17,-0.420278 0.11333,-0.113329 0.251849,-0.169996 0.415555,-0.17 0.166849,4e-6 0.306941,0.05667 0.420277,0.17 0.11333,0.113337 0.169997,0.25343 0.17,0.420278 -3e-6,0.163706 -0.05667,0.302225 -0.17,0.415555 -0.113336,0.113336 -0.253428,0.170002 -0.420277,0.169999 -0.163706,3e-6 -0.302225,-0.05509 -0.415555,-0.165277 -0.113336,-0.11333 -0.170002,-0.253422 -0.17,-0.420277 m 0.585555,-2.479165 c -0.321113,6e-6 -0.55565,0.196765 -0.70361,0.590277 -0.147965,0.393524 -0.221947,1.023152 -0.221945,1.888888 -2e-6,0.862594 0.07398,1.490648 0.221945,1.884164 0.14796,0.39352 0.382497,0.590279 0.70361,0.590278 0.324256,1e-6 0.560366,-0.196758 0.708333,-0.590278 0.147959,-0.393516 0.22194,-1.02157 0.221944,-1.884164 -4e-6,-0.865736 -0.07399,-1.495364 -0.221944,-1.888888 -0.147967,-0.393512 -0.384077,-0.590271 -0.708333,-0.590277 m -2.328053,2.479165 c -10e-7,-1.221476 0.19361,-2.136011 0.580832,-2.743609 0.387221,-0.610733 0.969627,-0.916103 1.747221,-0.91611 0.780736,7e-6 1.364717,0.303803 1.751943,0.911388 0.387216,0.607598 0.580827,1.523707 0.580832,2.748331 -5e-6,1.221482 -0.193616,2.136017 -0.580832,2.743608 -0.387226,0.607592 -0.971207,0.911388 -1.751943,0.911388 -0.777594,0 -1.36,-0.303796 -1.747221,-0.911388 -0.387222,-0.610739 -0.580833,-1.525274 -0.580832,-2.743608" id="R" fill-opacity="0.784"></path><path d="m 1.4149066,32.582255 1.5724985,0 0,1.279721 -0.9255547,1.808609 -1.0152767,0 0.3683329,-1.808609 0,-1.279721 m 0,-3.286664 1.5724985,0 0,1.72361 -1.5724985,0 0,-1.72361" id="S" fill-opacity="0.784"></path><path d="m 7.6083572,30.844479 2.9797188,0 0,1.374165 -2.9797188,0 0,-1.374165" id="T" fill-opacity="0.784"></path><path d="m 14.500696,30.844479 2.979719,0 0,1.374165 -2.979719,0 0,-1.374165" id="U" fill-opacity="0.784"></path><path d="m 21.393036,30.844479 2.979719,0 0,1.374165 -2.979719,0 0,-1.374165" id="V" fill-opacity="0.784"></path><path d="m 28.285373,30.844479 2.97972,0 0,1.374165 -2.97972,0 0,-1.374165" id="W" fill-opacity="0.784"></path></g><g mask="url(#C)" id="3" fill="#d3d7cf" fill-opacity="1"><path d="m 2.6332388,-3.6705853 -0.4486107,1.7661094 0.9586102,0 0.4438884,-1.7661094 1.0577767,0 -0.4580551,1.7661094 0.911388,0 0,1.01527676 -1.1616655,0 -0.3494441,1.38360975 0.9680546,0 0,1.01527679 -1.2183321,0 -0.4438885,1.7613871 -1.0436101,0 0.4438885,-1.7613871 -0.9680546,0 -0.44388845,1.7613871 -1.04361009,0 0.44388846,-1.7613871 -0.97749904,0 0,-1.01527679 1.22777657,0 0.3494441,-1.38360975 -1.03416565,0 0,-1.01527676 1.2938876,0 0.4438885,-1.7661094 1.0483323,0 m 0.2597219,2.78138616 -0.9680546,0 -0.3494441,1.38360975 0.9680546,0 0.3494441,-1.38360975" id="X"></path><path d="m 9.5255775,-3.6705853 -0.4486107,1.7661094 0.9586102,0 0.443888,-1.7661094 1.057777,0 -0.458055,1.7661094 0.911388,0 0,1.01527676 -1.161665,0 -0.349445,1.38360975 0.968055,0 0,1.01527679 -1.218332,0 -0.4438885,1.7613871 -1.0436101,0 0.4438885,-1.7613871 -0.9680547,0 -0.4438884,1.7613871 -1.0436101,0 0.4438885,-1.7613871 -0.9774991,0 0,-1.01527679 1.2277766,0 0.3494441,-1.38360975 -1.0341656,0 0,-1.01527676 1.2938876,0 0.4438884,-1.7661094 1.0483323,0 m 0.259722,2.78138616 -0.9680546,0 -0.3494441,1.38360975 0.9680546,0 0.3494441,-1.38360975" id="Y"></path><path d="m 16.417916,-3.6705853 -0.44861,1.7661094 0.95861,0 0.443888,-1.7661094 1.057777,0 -0.458055,1.7661094 0.911388,0 0,1.01527676 -1.161666,0 -0.349444,1.38360975 0.968055,0 0,1.01527679 -1.218332,0 -0.443889,1.7613871 -1.04361,0 0.443889,-1.7613871 -0.968055,0 -0.443888,1.7613871 -1.043611,0 0.443889,-1.7613871 -0.977499,0 0,-1.01527679 1.227776,0 0.349445,-1.38360975 -1.034166,0 0,-1.01527676 1.293888,0 0.443888,-1.7661094 1.048332,0 m 0.259722,2.78138616 -0.968054,0 -0.349444,1.38360975 0.968054,0 0.349444,-1.38360975" id="Z"></path><path d="m 23.310256,-3.6705853 -0.448611,1.7661094 0.95861,0 0.443889,-1.7661094 1.057777,0 -0.458055,1.7661094 0.911388,0 0,1.01527676 -1.161666,0 -0.349444,1.38360975 0.968055,0 0,1.01527679 -1.218333,0 -0.443888,1.7613871 -1.04361,0 0.443888,-1.7613871 -0.968054,0 -0.443889,1.7613871 -1.04361,0 0.443889,-1.7613871 -0.977499,0 0,-1.01527679 1.227776,0 0.349444,-1.38360975 -1.034165,0 0,-1.01527676 1.293887,0 0.443889,-1.7661094 1.048332,0 m 0.259722,2.78138616 -0.968055,0 -0.349444,1.38360975 0.968055,0 0.349444,-1.38360975" id="a"></path><path d="m 1.3346289,7.8249916 0,4.5380514 0.3777774,0 c 0.5477743,1e-6 0.9381439,-0.171573 1.17111,-0.514722 C 3.1164752,11.502027 3.2329565,10.914899 3.2329604,10.086934 3.2329565,9.2652723 3.1164752,8.6828661 2.8835163,8.3397133 2.6505502,7.9965711 2.2601806,7.8249974 1.7124063,7.8249916 l -0.3777774,0 m -1.39305415,-1.2561099 1.49222075,0 c 1.1522178,7.1e-6 1.9817532,0.2754695 2.4886087,0.8263881 0.5068462,0.5477829 0.7602716,1.4450034 0.760277,2.6916642 -5.4e-6,1.249816 -0.2534308,2.151758 -0.760277,2.70583 -0.5068555,0.550926 -1.3363909,0.826389 -2.4886087,0.826389 l -1.49222075,0 0,-7.0502713" id="b" fill="#c00"></path><path d="m 7.6083572,10.148323 2.9797188,0 0,1.374165 -2.9797188,0 0,-1.374165" id="c"></path><path d="m 14.500696,10.148323 2.979719,0 0,1.374165 -2.979719,0 0,-1.374165" id="d"></path><path d="m 20.387203,11.106933 4.991384,0 0,1.119165 -4.991384,0 0,-1.119165 m 0,-2.1486092 4.991384,0 0,1.1097212 -4.991384,0 0,-1.1097212" id="e" fill="#edd400"></path><path d="m 30.972315,13.279153 c -0.236115,0.157407 -0.487966,0.275463 -0.755555,0.354166 -0.264447,0.08185 -0.533613,0.122778 -0.807499,0.122778 -0.705186,0 -1.276574,-0.206204 -1.714165,-0.618611 -0.437592,-0.412406 -0.656388,-0.94759 -0.656388,-1.605554 0,-0.456478 0.110185,-0.872033 0.330555,-1.246665 C 27.592781,9.9106414 27.923336,9.5848087 28.360929,9.3077679 28.20352,9.0622172 28.087039,8.835551 28.011485,8.6277686 27.935928,8.4168481 27.898151,8.2169411 27.898152,8.028047 c -1e-6,-0.5099934 0.171572,-0.9019371 0.514721,-1.1758322 0.343146,-0.2738816 0.838979,-0.4108258 1.487499,-0.4108329 0.229811,7.1e-6 0.454903,0.017322 0.675277,0.051944 0.220366,0.034637 0.437588,0.085007 0.651666,0.1511109 l 0,1.2088877 C 31.02583,7.7399976 30.8212,7.6549977 30.613427,7.5983252 30.408794,7.5385165 30.204165,7.5086092 29.999538,7.508603 c -0.251854,6.2e-6 -0.442317,0.04408 -0.571388,0.1322221 -0.129076,0.088154 -0.193613,0.2172278 -0.193611,0.3872219 -2e-6,0.1133387 0.04722,0.2691717 0.141667,0.4674995 0.09759,0.1983381 0.253423,0.4580598 0.467499,0.7791659 l 1.478054,2.2666646 c 0.06611,-0.119627 0.116477,-0.256572 0.151111,-0.410833 0.03462,-0.154257 0.05194,-0.321108 0.05194,-0.500555 -5e-6,-0.09444 -0.0032,-0.185738 -0.0094,-0.273889 -0.0063,-0.09129 -0.01574,-0.176292 -0.02833,-0.255 l 1.109721,0 0,0.240834 c -6e-6,0.456483 -0.05352,0.856297 -0.160555,1.199443 -0.107043,0.340001 -0.275468,0.645371 -0.505278,0.91611 l 0.765,1.161666 -1.496943,0 -0.226667,-0.34 m -2.030553,-3.111941 c -0.20778,0.135373 -0.365187,0.297502 -0.472222,0.486388 -0.10389,0.185743 -0.155835,0.393521 -0.155833,0.623333 -2e-6,0.384075 0.122776,0.708334 0.368333,0.972776 0.248701,0.261298 0.552497,0.391946 0.911388,0.391945 0.08815,10e-7 0.177867,-0.0094 0.269166,-0.02833 0.09444,-0.02204 0.185737,-0.05194 0.273889,-0.08972 0.0063,-0.0031 0.01889,-0.0094 0.03778,-0.01889 0.09129,-0.04407 0.165275,-0.085 0.221945,-0.122777 l -1.454443,-2.21472" id="f" fill="#eeeeec"></path><path d="m 0.71601843,20.496401 2.97971927,0 0,1.374165 -2.97971927,0 0,-1.374165" id="g"></path><path d="m 7.6083572,20.496401 2.9797188,0 0,1.374165 -2.9797188,0 0,-1.374165" id="h"></path><path d="m 17.674026,21.393622 c -4e-6,-0.355737 -0.08028,-0.634348 -0.240833,-0.835832 -0.16056,-0.201478 -0.380929,-0.302219 -0.66111,-0.302222 -0.280189,3e-6 -0.500559,0.100744 -0.661111,0.302222 -0.15741,0.201484 -0.236114,0.480095 -0.236111,0.835832 -3e-6,0.358891 0.0787,0.639075 0.236111,0.840555 0.160552,0.201483 0.380922,0.302223 0.661111,0.302222 0.280181,1e-6 0.50055,-0.100739 0.66111,-0.302222 0.160551,-0.20148 0.240829,-0.481664 0.240833,-0.840555 m 0.878333,1.936109 -0.925555,0 0,-0.387222 c -0.119634,0.166853 -0.2613,0.28963 -0.425,0.368333 -0.160559,0.07556 -0.35417,0.113334 -0.580832,0.113334 -0.516299,0 -0.933428,-0.18574 -1.251388,-0.557222 -0.314817,-0.37148 -0.472224,-0.86259 -0.472222,-1.473332 -2e-6,-0.607589 0.157405,-1.095551 0.472222,-1.463887 0.314812,-0.371477 0.731941,-0.557217 1.251388,-0.557222 0.223514,5e-6 0.420273,0.03936 0.590277,0.118055 0.169995,0.07556 0.308514,0.187319 0.415555,0.335278 l 0,-0.193611 c -5e-6,-0.428143 -0.11806,-0.758698 -0.354166,-0.991666 -0.232967,-0.232957 -0.56667,-0.349438 -1.00111,-0.349444 -0.654817,6e-6 -1.190001,0.288061 -1.605554,0.864166 -0.412409,0.576115 -0.618612,1.325372 -0.618611,2.247775 -1e-6,0.966483 0.239258,1.736203 0.717777,2.309165 0.478516,0.569814 1.116015,0.854721 1.912498,0.854721 0.251848,0 0.495829,-0.03778 0.731944,-0.113333 0.236106,-0.07241 0.462772,-0.182593 0.679999,-0.330555 l 0.434444,0.83111 c -0.255005,0.173147 -0.533615,0.302221 -0.835832,0.387222 -0.299078,0.08815 -0.620189,0.13222 -0.963333,0.132222 -1.101853,-2e-6 -1.980184,-0.36676 -2.634997,-1.100277 -0.654815,-0.733517 -0.982221,-1.723608 -0.982221,-2.970275 0,-1.218328 0.294351,-2.192678 0.883054,-2.923052 0.588702,-0.733512 1.367867,-1.10027 2.337498,-1.100277 0.686292,7e-6 1.227772,0.207784 1.624443,0.623333 0.399809,0.412412 0.599716,0.97593 0.599722,1.690554 l 0,3.636107" id="i" fill="#73d216"></path><path d="m 21.393036,20.496401 2.979719,0 0,1.374165 -2.979719,0 0,-1.374165" id="j"></path><path d="m 29.187317,20.449179 c -2e-6,-0.166848 0.05666,-0.306941 0.17,-0.420278 0.11333,-0.113329 0.251849,-0.169996 0.415555,-0.17 0.166849,4e-6 0.306941,0.05667 0.420277,0.17 0.11333,0.113337 0.169997,0.25343 0.17,0.420278 -3e-6,0.163706 -0.05667,0.302225 -0.17,0.415555 -0.113336,0.113336 -0.253428,0.170002 -0.420277,0.169999 -0.163706,3e-6 -0.302225,-0.05509 -0.415555,-0.165277 -0.113336,-0.11333 -0.170002,-0.253422 -0.17,-0.420277 m 0.585555,-2.479165 c -0.321113,6e-6 -0.55565,0.196765 -0.70361,0.590277 -0.147965,0.393524 -0.221947,1.023152 -0.221945,1.888888 -2e-6,0.862594 0.07398,1.490648 0.221945,1.884164 0.14796,0.39352 0.382497,0.590279 0.70361,0.590278 0.324256,1e-6 0.560366,-0.196758 0.708333,-0.590278 0.147959,-0.393516 0.22194,-1.02157 0.221944,-1.884164 -4e-6,-0.865736 -0.07399,-1.495364 -0.221944,-1.888888 -0.147967,-0.393512 -0.384077,-0.590271 -0.708333,-0.590277 m -2.328053,2.479165 c -10e-7,-1.221476 0.19361,-2.136011 0.580832,-2.743609 0.387221,-0.610733 0.969627,-0.916103 1.747221,-0.91611 0.780736,7e-6 1.364717,0.303803 1.751943,0.911388 0.387216,0.607598 0.580827,1.523707 0.580832,2.748331 -5e-6,1.221482 -0.193616,2.136017 -0.580832,2.743608 -0.387226,0.607592 -0.971207,0.911388 -1.751943,0.911388 -0.777594,0 -1.36,-0.303796 -1.747221,-0.911388 -0.387222,-0.610739 -0.580833,-1.525274 -0.580832,-2.743608" id="k" fill="#babdb6"></path><path d="m 1.4149066,32.582255 1.5724985,0 0,1.279721 -0.9255547,1.808609 -1.0152767,0 0.3683329,-1.808609 0,-1.279721 m 0,-3.286664 1.5724985,0 0,1.72361 -1.5724985,0 0,-1.72361" id="l"></path><path d="m 7.6083572,30.844479 2.9797188,0 0,1.374165 -2.9797188,0 0,-1.374165" id="m"></path><path d="m 14.500696,30.844479 2.979719,0 0,1.374165 -2.979719,0 0,-1.374165" id="n"></path><path d="m 21.393036,30.844479 2.979719,0 0,1.374165 -2.979719,0 0,-1.374165" id="o"></path><path d="m 28.285373,30.844479 2.97972,0 0,1.374165 -2.97972,0 0,-1.374165" id="p"></path></g><path d="m 5,1.4816 c -1.9834933,0 -3.53125,1.5477 -3.53125,3.5312 l 0,22 c 0,1.9835 1.5477567,3.5312 3.53125,3.5312 l 22,0 c 1.983493,0 3.53125,-1.5477 3.53125,-3.5312 l 0,-22 C 30.53125,3.0293 28.983493,1.4815 27,1.4816 l -22,0 z" id="4" opacity="0.1" fill="none" stroke="url(#9)"></path><path d="m 5,0.4816 c -2.5134381,0 -4.53125,2.0178 -4.53125,4.5312 l 0,22 c 0,2.5134 2.0178119,4.5312 4.53125,4.5312 l 22,0 c 2.513438,0 4.53125,-2.0178 4.53125,-4.5312 l 0,-22 C 31.53125,2.4994 29.513438,0.4816 27,0.4816 l -22,0 z" id="5" opacity="0.6" fill="none" stroke="#000"></path><path d="m 5,1.4816 c -1.9834933,0 -3.53125,1.5477 -3.53125,3.5312 l 0,22 c 0,1.9835 1.5477567,3.5312 3.53125,3.5312 l 22,0 c 1.983493,0 3.53125,-1.5477 3.53125,-3.5312 l 0,-22 C 30.53125,3.0293 28.983493,1.4815 27,1.4816 l -22,0 z" id="6" opacity="0.3" fill="none" stroke="url(#A)"></path></svg> 